<svg width="20" height="24" viewBox="0 0 20 24" fill="none" xmlns="http://www.w3.org/2000/svg">
<mask id="path-1-outside-1" maskUnits="userSpaceOnUse" x="0.30249" y="11.522" width="15" height="12" fill="black">
<rect fill="white" x="0.30249" y="11.522" width="15" height="12"/>
<path fill-rule="evenodd" clip-rule="evenodd" d="M3.46142 13.7038C2.8174 13.7176 2.30249 14.2436 2.30249 14.8878V17.9322C2.30249 17.9424 2.31078 17.9507 2.32099 17.9507H2.32783C2.33227 17.9507 2.33663 17.9519 2.34048 17.9541L9.13894 21.8693C9.7056 22.1957 10.4057 22.1843 10.9615 21.8397L13.6603 20.1663C13.73 20.1231 13.7723 20.047 13.7723 19.965L13.7723 17.9507C13.7723 17.9507 13.7723 17.9507 13.7723 17.9507C13.7723 17.9507 13.7723 17.9507 13.7723 17.9507V15.2983C13.7723 14.3024 12.9537 13.5011 11.9581 13.5224L3.46142 13.7038Z"/>
</mask>
<path fill-rule="evenodd" clip-rule="evenodd" d="M3.46142 13.7038C2.8174 13.7176 2.30249 14.2436 2.30249 14.8878V17.9322C2.30249 17.9424 2.31078 17.9507 2.32099 17.9507H2.32783C2.33227 17.9507 2.33663 17.9519 2.34048 17.9541L9.13894 21.8693C9.7056 22.1957 10.4057 22.1843 10.9615 21.8397L13.6603 20.1663C13.73 20.1231 13.7723 20.047 13.7723 19.965L13.7723 17.9507C13.7723 17.9507 13.7723 17.9507 13.7723 17.9507C13.7723 17.9507 13.7723 17.9507 13.7723 17.9507V15.2983C13.7723 14.3024 12.9537 13.5011 11.9581 13.5224L3.46142 13.7038Z" fill="#FCFCFC"/>
<path d="M3.46142 13.7038L3.43361 12.4015L3.46142 13.7038ZM13.6603 20.1663L12.9739 19.0592L12.9739 19.0592L13.6603 20.1663ZM13.7723 19.965H15.075V19.965L13.7723 19.965ZM11.9581 13.5224L11.9303 12.2201L11.9581 13.5224ZM9.13894 21.8693L9.78903 20.7405L9.13894 21.8693ZM10.9615 21.8397L11.6479 22.9468L10.9615 21.8397ZM2.34048 17.9541L1.69039 19.0829L2.34048 17.9541ZM13.7723 17.9507L15.075 17.9507L13.7723 17.9507ZM3.60512 14.8878C3.60512 14.9522 3.55363 15.0048 3.48923 15.0062L3.43361 12.4015C2.08116 12.4304 0.999859 13.535 0.999859 14.8878H3.60512ZM3.60512 17.9322V14.8878H0.999859V17.9322H3.60512ZM2.32783 16.6481H2.32099V19.2533H2.32783V16.6481ZM9.78903 20.7405L2.99057 16.8253L1.69039 19.0829L8.48885 22.9982L9.78903 20.7405ZM12.9739 19.0592L10.275 20.7326L11.6479 22.9468L14.3467 21.2734L12.9739 19.0592ZM12.4697 19.965C12.4697 19.5962 12.6604 19.2536 12.9739 19.0592L14.3467 21.2734C14.7995 20.9927 15.075 20.4978 15.075 19.965H12.4697ZM12.4697 17.9507L12.4697 19.965L15.075 19.965L15.075 17.9507L12.4697 17.9507ZM12.4697 15.2983V17.9507H15.075V15.2983H12.4697ZM3.48923 15.0062L11.9859 14.8247L11.9303 12.2201L3.43361 12.4015L3.48923 15.0062ZM15.075 15.2983C15.075 13.5721 13.6561 12.1832 11.9303 12.2201L11.9859 14.8247C12.2514 14.8191 12.4697 15.0327 12.4697 15.2983H15.075ZM8.48885 22.9982C9.47106 23.5638 10.6846 23.5441 11.6479 22.9468L10.275 20.7326C10.1268 20.8245 9.94014 20.8275 9.78903 20.7405L8.48885 22.9982ZM13.7723 19.2533C14.4521 19.2533 15.075 18.7092 15.075 17.9507H12.4697C12.4697 17.1922 13.0926 16.6481 13.7723 16.6481V19.2533ZM2.32783 19.2533C2.1041 19.2533 1.88429 19.1946 1.69039 19.0829L2.99057 16.8253C2.78898 16.7092 2.56044 16.6481 2.32783 16.6481V19.2533ZM15.075 17.9507C15.075 18.6701 14.4918 19.2533 13.7723 19.2533V16.6481C13.0529 16.6481 12.4697 17.2313 12.4697 17.9507L15.075 17.9507ZM0.999859 17.9326C1.00008 18.6621 1.59151 19.2533 2.32099 19.2533V16.6481C3.03004 16.6481 3.60491 17.2228 3.60512 17.9318L0.999859 17.9326Z" fill="#333333" mask="url(#path-1-outside-1)"/>
<mask id="path-3-outside-2" maskUnits="userSpaceOnUse" x="0.302612" y="7.56445" width="19" height="12" fill="black">
<rect fill="white" x="0.302612" y="7.56445" width="19" height="12"/>
<path fill-rule="evenodd" clip-rule="evenodd" d="M16.6914 9.89955L10.0592 9.56445L3.42712 9.89954C2.79713 9.93137 2.30267 10.4514 2.30267 11.0822V14.0131C2.30267 14.0131 2.30266 14.0132 2.30264 14.0132C2.30261 14.0132 2.3026 14.0132 2.30263 14.0132L2.30265 14.0132C2.30266 14.0132 2.30267 14.0132 2.30267 14.0133V14.0199C2.30267 14.0263 2.30785 14.0315 2.31424 14.0315H2.32769C2.33207 14.0315 2.33638 14.0327 2.34018 14.0348L9.17263 17.9697C9.72137 18.2857 10.3969 18.2857 10.9456 17.9697L17.778 14.0349C17.7818 14.0327 17.7862 14.0315 17.7906 14.0315C17.8045 14.0315 17.8158 14.0202 17.8158 14.0063V11.0822C17.8158 10.4515 17.3214 9.93138 16.6914 9.89955Z"/>
</mask>
<path fill-rule="evenodd" clip-rule="evenodd" d="M16.6914 9.89955L10.0592 9.56445L3.42712 9.89954C2.79713 9.93137 2.30267 10.4514 2.30267 11.0822V14.0131C2.30267 14.0131 2.30266 14.0132 2.30264 14.0132C2.30261 14.0132 2.3026 14.0132 2.30263 14.0132L2.30265 14.0132C2.30266 14.0132 2.30267 14.0132 2.30267 14.0133V14.0199C2.30267 14.0263 2.30785 14.0315 2.31424 14.0315H2.32769C2.33207 14.0315 2.33638 14.0327 2.34018 14.0348L9.17263 17.9697C9.72137 18.2857 10.3969 18.2857 10.9456 17.9697L17.778 14.0349C17.7818 14.0327 17.7862 14.0315 17.7906 14.0315C17.8045 14.0315 17.8158 14.0202 17.8158 14.0063V11.0822C17.8158 10.4515 17.3214 9.93138 16.6914 9.89955Z" fill="#FCFCFC"/>
<path d="M10.0592 9.56445L10.125 8.26348L10.0592 8.26016L9.99352 8.26348L10.0592 9.56445ZM16.6914 9.89955L16.6256 11.2005L16.6914 9.89955ZM3.42712 9.89954L3.36139 8.59857L3.42712 9.89954ZM17.778 14.0349L18.4281 15.1637L17.778 14.0349ZM10.9456 17.9697L11.5957 19.0985L10.9456 17.9697ZM2.34018 14.0348L1.69009 15.1637L2.34018 14.0348ZM2.30265 14.0132L1.65385 15.1428L2.30265 14.0132ZM2.30263 14.0132L1.65382 15.1428L2.30263 14.0132ZM9.99352 10.8654L16.6256 11.2005L16.7571 8.59857L10.125 8.26348L9.99352 10.8654ZM3.49286 11.2005L10.125 10.8654L9.99352 8.26348L3.36139 8.59857L3.49286 11.2005ZM3.6053 11.0822C3.6053 11.1453 3.55586 11.1973 3.49286 11.2005L3.36139 8.59857C2.03841 8.66541 1.00004 9.75757 1.00004 11.0822H3.6053ZM3.6053 14.0131V11.0822H1.00004V14.0131H3.6053ZM2.95145 12.8837L2.95143 12.8837L1.65382 15.1428L1.65385 15.1428L2.95145 12.8837ZM3.6053 14.0199V14.0133H1.00004V14.0199H3.6053ZM2.32769 12.7289H2.31424V15.3341H2.32769V12.7289ZM9.82272 16.8409L2.99027 12.906L1.69009 15.1637L8.52253 19.0985L9.82272 16.8409ZM17.1279 12.9061L10.2955 16.8409L11.5957 19.0985L18.4281 15.1637L17.1279 12.9061ZM16.5132 11.0822V14.0063H19.1185V11.0822H16.5132ZM16.6256 11.2005C16.5626 11.1973 16.5132 11.1453 16.5132 11.0822H19.1185C19.1185 9.75758 18.0801 8.66542 16.7571 8.59857L16.6256 11.2005ZM17.7906 15.3341C18.5239 15.3341 19.1185 14.7396 19.1185 14.0063H16.5132C16.5132 13.3008 17.0851 12.7289 17.7906 12.7289V15.3341ZM18.4281 15.1637C18.2342 15.2754 18.0144 15.3341 17.7906 15.3341V12.7289C17.558 12.7289 17.3295 12.79 17.1279 12.9061L18.4281 15.1637ZM8.52253 19.0985C9.47369 19.6463 10.6445 19.6463 11.5957 19.0985L10.2955 16.8409C10.1492 16.9251 9.96905 16.9251 9.82272 16.8409L8.52253 19.0985ZM2.32769 15.3341C2.10387 15.3341 1.884 15.2753 1.69009 15.1637L2.99027 12.906C2.78875 12.79 2.56027 12.7289 2.32769 12.7289V15.3341ZM1.00004 14.0199C1.00004 14.7457 1.58842 15.3341 2.31424 15.3341V12.7289C3.02727 12.7289 3.6053 13.3069 3.6053 14.0199H1.00004ZM1.65385 15.1428C1.24945 14.9105 1.00004 14.4797 1.00004 14.0133H3.6053C3.6053 13.5468 3.35588 13.116 2.95145 12.8837L1.65385 15.1428ZM2.30264 12.7105C0.968345 12.7105 0.496814 14.4782 1.65382 15.1428L2.95143 12.8837C4.10839 13.5482 3.63688 15.3158 2.30264 15.3158V12.7105ZM1.00004 14.0131C1.00004 13.2937 1.58323 12.7105 2.30264 12.7105V15.3158C3.02208 15.3158 3.6053 14.7326 3.6053 14.0131H1.00004Z" fill="#333333" mask="url(#path-3-outside-2)"/>
<mask id="path-5-outside-3" maskUnits="userSpaceOnUse" x="0.302612" y="3.64551" width="19" height="12" fill="black">
<rect fill="white" x="0.302612" y="3.64551" width="19" height="12"/>
<path fill-rule="evenodd" clip-rule="evenodd" d="M16.6615 5.8123L10.0592 5.64551L3.45697 5.8123C2.81481 5.82852 2.30267 6.35376 2.30267 6.99613V10.0939C2.30267 10.0939 2.30266 10.0939 2.30264 10.0939C2.30261 10.0939 2.3026 10.094 2.30263 10.094L2.30265 10.094C2.30266 10.094 2.30267 10.094 2.30267 10.094V10.1008C2.30267 10.1073 2.30793 10.1126 2.31442 10.1126H2.3281C2.33255 10.1126 2.33692 10.1137 2.34078 10.116L9.17263 14.0504C9.72137 14.3665 10.3969 14.3665 10.9456 14.0504L17.7774 10.116C17.7813 10.1137 17.7857 10.1126 17.7902 10.1126C17.8043 10.1126 17.8158 10.1011 17.8158 10.0869V6.99613C17.8158 6.35376 17.3037 5.82852 16.6615 5.8123Z"/>
</mask>
<path fill-rule="evenodd" clip-rule="evenodd" d="M16.6615 5.8123L10.0592 5.64551L3.45697 5.8123C2.81481 5.82852 2.30267 6.35376 2.30267 6.99613V10.0939C2.30267 10.0939 2.30266 10.0939 2.30264 10.0939C2.30261 10.0939 2.3026 10.094 2.30263 10.094L2.30265 10.094C2.30266 10.094 2.30267 10.094 2.30267 10.094V10.1008C2.30267 10.1073 2.30793 10.1126 2.31442 10.1126H2.3281C2.33255 10.1126 2.33692 10.1137 2.34078 10.116L9.17263 14.0504C9.72137 14.3665 10.3969 14.3665 10.9456 14.0504L17.7774 10.116C17.7813 10.1137 17.7857 10.1126 17.7902 10.1126C17.8043 10.1126 17.8158 10.1011 17.8158 10.0869V6.99613C17.8158 6.35376 17.3037 5.82852 16.6615 5.8123Z" fill="#FCFCFC"/>
<path d="M10.0592 5.64551L10.0921 4.34329L10.0592 4.34246L10.0264 4.34329L10.0592 5.64551ZM16.6615 5.8123L16.6944 4.51008L16.6615 5.8123ZM3.45697 5.8123L3.42408 4.51008L3.45697 5.8123ZM17.7774 10.116L18.4275 11.2448L17.7774 10.116ZM9.17263 14.0504L8.52253 15.1793L9.17263 14.0504ZM10.9456 14.0504L10.2955 12.9216L10.9456 14.0504ZM2.34078 10.116L2.99088 8.98713L2.34078 10.116ZM2.30265 10.094L1.65385 11.2235L2.30265 10.094ZM2.30263 10.094L1.65382 11.2235L2.30263 10.094ZM10.0264 6.94772L16.6286 7.11452L16.6944 4.51008L10.0921 4.34329L10.0264 6.94772ZM3.48987 7.11452L10.0921 6.94772L10.0264 4.34329L3.42408 4.51008L3.48987 7.11452ZM3.6053 6.99613C3.6053 7.06037 3.55409 7.11289 3.48987 7.11452L3.42408 4.51008C2.07553 4.54415 1.00004 5.64715 1.00004 6.99613H3.6053ZM3.6053 10.0939V6.99613H1.00004V10.0939H3.6053ZM2.95145 8.96443L2.95143 8.96442L1.65382 11.2235L1.65385 11.2235L2.95145 8.96443ZM3.6053 10.1008V10.094H1.00004V10.1008H3.6053ZM2.3281 8.80993H2.31442V11.4152H2.3281V8.80993ZM9.82272 12.9216L2.99088 8.98713L1.69069 11.2448L8.52253 15.1793L9.82272 12.9216ZM17.1273 8.98716L10.2955 12.9216L11.5957 15.1793L18.4275 11.2448L17.1273 8.98716ZM16.5132 6.99613V10.0869H19.1185V6.99613H16.5132ZM16.6286 7.11452C16.5644 7.11289 16.5132 7.06037 16.5132 6.99613H19.1185C19.1185 5.64715 18.043 4.54415 16.6944 4.51008L16.6286 7.11452ZM17.7902 11.4152C18.5238 11.4152 19.1185 10.8205 19.1185 10.0869H16.5132C16.5132 9.38166 17.0849 8.80993 17.7902 8.80993V11.4152ZM18.4275 11.2448C18.2336 11.3564 18.0139 11.4152 17.7902 11.4152V8.80993C17.5575 8.80993 17.3289 8.87104 17.1273 8.98716L18.4275 11.2448ZM8.52253 15.1793C9.47369 15.727 10.6445 15.727 11.5957 15.1793L10.2955 12.9216C10.1492 13.0059 9.96905 13.0059 9.82272 12.9216L8.52253 15.1793ZM2.3281 11.4152C2.10437 11.4152 1.88457 11.3564 1.69069 11.2448L2.99088 8.98713C2.78928 8.87103 2.56073 8.80993 2.3281 8.80993V11.4152ZM1.00004 10.1008C1.00004 10.8267 1.58851 11.4152 2.31442 11.4152V8.80993C3.02735 8.80993 3.6053 9.38787 3.6053 10.1008H1.00004ZM1.65385 11.2235C1.24944 10.9913 1.00004 10.5605 1.00004 10.094H3.6053C3.6053 9.62755 3.35589 9.19673 2.95145 8.96443L1.65385 11.2235ZM2.30264 8.79129C0.968345 8.79129 0.496814 10.559 1.65382 11.2235L2.95143 8.96442C4.10839 9.62896 3.63688 11.3966 2.30264 11.3966V8.79129ZM1.00004 10.0939C1.00004 9.37448 1.58323 8.79129 2.30264 8.79129V11.3966C3.02208 11.3966 3.6053 10.8133 3.6053 10.0939H1.00004Z" fill="#333333" mask="url(#path-5-outside-3)"/>
<mask id="path-7-outside-4" maskUnits="userSpaceOnUse" x="0.311768" y="0" width="19" height="12" fill="black">
<rect fill="white" x="0.311768" width="19" height="12"/>
<path fill-rule="evenodd" clip-rule="evenodd" d="M17.7856 6.17501C17.7842 6.17501 17.7829 6.17465 17.7816 6.17394L10.9456 2.23702C10.3968 1.92099 9.72133 1.92099 9.17259 2.23702L2.33652 6.17394C2.3353 6.17465 2.33392 6.17502 2.33251 6.17502H2.31516C2.31169 6.17502 2.31047 6.17961 2.31347 6.18134C2.31573 6.18265 2.31574 6.18591 2.31347 6.18721C2.31047 6.18894 2.3117 6.19354 2.31516 6.19354H2.3325C2.3339 6.19354 2.33528 6.1939 2.3365 6.19461L9.17257 10.1315C9.72132 10.4476 10.3968 10.4476 10.9455 10.1315L17.7816 6.19461C17.7828 6.1939 17.7842 6.19354 17.7856 6.19354H17.803C17.8064 6.19354 17.8077 6.18894 17.8047 6.18721C17.8024 6.1859 17.8024 6.18264 17.8047 6.18134C17.8077 6.17961 17.8064 6.17501 17.803 6.17501H17.7856Z"/>
</mask>
<path fill-rule="evenodd" clip-rule="evenodd" d="M17.7856 6.17501C17.7842 6.17501 17.7829 6.17465 17.7816 6.17394L10.9456 2.23702C10.3968 1.92099 9.72133 1.92099 9.17259 2.23702L2.33652 6.17394C2.3353 6.17465 2.33392 6.17502 2.33251 6.17502H2.31516C2.31169 6.17502 2.31047 6.17961 2.31347 6.18134C2.31573 6.18265 2.31574 6.18591 2.31347 6.18721C2.31047 6.18894 2.3117 6.19354 2.31516 6.19354H2.3325C2.3339 6.19354 2.33528 6.1939 2.3365 6.19461L9.17257 10.1315C9.72132 10.4476 10.3968 10.4476 10.9455 10.1315L17.7816 6.19461C17.7828 6.1939 17.7842 6.19354 17.7856 6.19354H17.803C17.8064 6.19354 17.8077 6.18894 17.8047 6.18721C17.8024 6.1859 17.8024 6.18264 17.8047 6.18134C17.8077 6.17961 17.8064 6.17501 17.803 6.17501H17.7856Z" fill="#FCFCFC"/>
<path d="M17.7816 6.19461L18.4317 7.32342L17.7816 6.19461ZM9.17257 10.1315L8.52248 11.2604L9.17257 10.1315ZM10.9455 10.1315L11.5956 11.2604L10.9455 10.1315ZM2.3365 6.19461L2.98659 5.06579L2.3365 6.19461ZM2.33652 6.17394L1.68643 5.04513L2.33652 6.17394ZM17.7816 6.17394L18.4317 5.04513L17.7816 6.17394ZM10.2955 3.36584L17.1315 7.30276L18.4317 5.04513L11.5957 1.1082L10.2955 3.36584ZM2.98661 7.30276L9.82268 3.36584L8.5225 1.1082L1.68643 5.04513L2.98661 7.30276ZM2.31516 7.47765H2.33251V4.87238H2.31516V7.47765ZM2.3325 4.8909H2.31516V7.49617H2.3325V4.8909ZM9.82267 9.00271L2.98659 5.06579L1.68641 7.32342L8.52248 11.2604L9.82267 9.00271ZM17.1315 5.06579L10.2955 9.00271L11.5956 11.2604L18.4317 7.32342L17.1315 5.06579ZM17.803 4.8909H17.7856V7.49617H17.803V4.8909ZM17.7856 7.47765H17.803V4.87238H17.7856V7.47765ZM18.4548 7.31014C19.6133 6.64291 19.1399 4.87238 17.803 4.87238V7.47765C16.473 7.47765 16.002 5.7163 17.1546 5.05253L18.4548 7.31014ZM18.4548 5.05839C19.3214 5.55752 19.3237 6.80973 18.4548 7.31014L17.1546 5.05253C16.2812 5.55555 16.2834 6.81429 17.1546 7.31602L18.4548 5.05839ZM17.803 7.49617C19.1447 7.49617 19.6092 5.72322 18.4548 5.05839L17.1546 7.31602C16.0062 6.65465 16.4682 4.8909 17.803 4.8909V7.49617ZM18.4317 7.32342C18.2352 7.4366 18.0124 7.49617 17.7856 7.49617V4.8909C17.556 4.8909 17.3305 4.95121 17.1315 5.06579L18.4317 7.32342ZM8.52248 11.2604C9.47364 11.8081 10.6445 11.8081 11.5956 11.2604L10.2955 9.00271C10.1491 9.08699 9.969 9.08699 9.82267 9.00271L8.52248 11.2604ZM2.3325 7.49617C2.1058 7.49617 1.88299 7.43664 1.68641 7.32342L2.98659 5.06579C2.78757 4.95117 2.562 4.8909 2.3325 4.8909V7.49617ZM1.66338 5.0584C0.504833 5.72561 0.978223 7.49617 2.31516 7.49617V4.8909C3.64517 4.8909 4.11611 6.65228 2.96356 7.31603L1.66338 5.0584ZM1.66338 7.31016C0.79674 6.81106 0.794441 5.55882 1.66338 5.0584L2.96356 7.31603C3.83703 6.813 3.83473 5.55424 2.96357 5.05253L1.66338 7.31016ZM2.31516 4.87238C0.973232 4.87238 0.509149 6.64543 1.66338 7.31016L2.96357 5.05253C4.11178 5.71379 3.65015 7.47765 2.31516 7.47765V4.87238ZM1.68643 5.04513C1.88294 4.93195 2.10574 4.87238 2.33251 4.87238V7.47765C2.5621 7.47765 2.78766 7.41734 2.98661 7.30276L1.68643 5.04513ZM17.1315 7.30276C17.3304 7.4173 17.556 7.47765 17.7856 7.47765V4.87238C18.0125 4.87238 18.2353 4.93199 18.4317 5.04513L17.1315 7.30276ZM11.5957 1.1082C10.6445 0.560425 9.47366 0.560424 8.5225 1.1082L9.82268 3.36584C9.96901 3.28156 10.1491 3.28156 10.2955 3.36584L11.5957 1.1082Z" fill="#333333" mask="url(#path-7-outside-4)"/>
<line x1="1.05921" y1="6.24805" x2="1.05921" y2="17.8533" stroke="#333333" stroke-width="0.118421"/>
<line x1="19.0592" y1="6.24805" x2="19.0592" y2="13.827" stroke="#333333" stroke-width="0.118421"/>
</svg>
